<?xml version="1.0" encoding="UTF-8" standalone="no"?>
<svg width="157px" height="23px" viewBox="0 0 157 23" version="1.1" xmlns="http://www.w3.org/2000/svg" xmlns:xlink="http://www.w3.org/1999/xlink">
    <!-- Generator: Sketch 45.1 (43504) - http://www.bohemiancoding.com/sketch -->
    <title>logo-codimuba</title>
    <desc>Created with Sketch.</desc>
    <defs></defs>
    <g id="Symbols" stroke="none" stroke-width="1" fill="none" fill-rule="evenodd">
        <g id="header-320" transform="translate(-10.000000, -15.000000)" fill="#FFFFFF">
            <g id="logo-codimuba" transform="translate(10.000000, 15.000000)">
                <path d="M16.9438913,0.879838516 L16.9438913,4.44102691 L6.93428701,4.44102691 C6.93428701,4.44102691 4.23383169,4.2661133 4.23943156,6.36507662 L4.23943156,10.4081833 C4.23943156,10.4081833 4.33495877,12.4287484 6.06795406,12.4287484 L16.9438913,12.4287484 L16.9438913,16.3746809 L4.03322456,16.3746809 C4.03322456,16.3746809 0.0042822541,16.3746809 0.0042822541,11.273528 L0.0042822541,4.92129818 C0.0042822541,4.92129818 0.0042822541,0.967789427 3.66165666,0.879838516 L16.9438913,0.879838516" id="Fill-9"></path>
                <path d="M94.189826,0.638385265 L98.3235188,0.638385265 L98.3235188,9.86433703 C98.3235188,9.86433703 98.4592333,12.2344 100.750239,12.2344 L107.266512,12.2344 C107.266512,12.2344 109.472203,12.12932 109.472203,10.2388696 L109.472203,0.638385265 L113.778503,0.638385265 L113.778503,11.8819375 C113.778503,11.8819375 113.778503,16.2791537 108.210255,16.2791537 L98.6018653,16.2791537 C98.6018653,16.2791537 94.2870002,16.2791537 94.189826,12.2877634 L94.189826,0.638385265" id="Fill-10"></path>
                <path d="M34.9662518,10.1229193 C34.9662518,12.2218826 32.7944901,12.3473856 32.7944901,12.3473856 L24.5297397,12.3473856 C24.5297397,12.3473856 22.3583075,12.2218826 22.3583075,10.1229193 L22.3583075,6.60652987 C22.3583075,6.60652987 22.4541641,4.58497653 24.1865006,4.58497653 L33.1377293,4.58497653 C34.8700658,4.58497653 34.9662518,6.60652987 34.9662518,6.60652987 L34.9662518,10.1229193 Z M35.1718,0.638385265 L22.1524299,0.638385265 C22.1524299,0.638385265 18.1234876,0.638385265 18.1234876,5.73953811 L18.1234876,12.091768 C18.1234876,12.091768 18.1234876,16.0469237 21.780862,16.1348746 L35.5433679,16.1348746 C39.2014011,16.0469237 39.2014011,12.091768 39.2014011,12.091768 L39.2014011,5.73953811 C39.2014011,0.638385265 35.1718,0.638385265 35.1718,0.638385265 L35.1718,0.638385265 Z" id="Fill-11"></path>
                <path d="M55.8893453,0.638385265 L40.4281022,0.638385265 L40.4281022,4.58497653 L53.8542864,4.58497653 C55.5866229,4.58497653 55.6831383,6.60652987 55.6831383,6.60652987 L55.6831383,10.1229193 C55.6831383,12.2218826 53.5120355,12.3473856 53.5120355,12.3473856 L44.7887545,12.3473856 L44.7887545,6.59236549 L40.4281022,6.59236549 L40.4281022,16.1348746 L56.2609132,16.1348746 C59.9182876,16.0469237 59.9182876,12.091768 59.9182876,12.091768 L59.9182876,5.73953811 C59.9182876,0.638385265 55.8893453,0.638385265 55.8893453,0.638385265" id="Fill-12"></path>
                <polygon id="Fill-13" points="61.4098297 16.1348746 65.741165 16.1348746 65.741165 0.638385265 61.4098297 0.638385265"></polygon>
                <path d="M149.663134,12.5638041 L140.546544,12.5638041 C139.916065,12.5638041 139.406806,12.0542159 139.406806,11.4240657 C139.406806,10.7955626 139.916065,10.2843273 140.546544,10.2843273 L149.663134,10.2843273 C150.292625,10.2843273 150.804519,10.7955626 150.804519,11.4240657 C150.804519,12.0542159 150.292625,12.5638041 149.663134,12.5638041 Z M152.363589,0.638385265 L135.127846,0.638385265 L135.127846,4.48648468 L150.003408,4.48648468 C152.04275,4.48648468 151.643841,7.88593563 151.643841,7.88593563 C151.643841,6.56733077 149.884164,6.56601316 149.884164,6.56601316 L137.606942,6.56601316 C135.168692,6.56601316 135.127846,9.00525097 135.127846,9.00525097 L135.127846,13.5230291 C135.127846,16.2837653 136.96658,16.2037201 136.96658,16.2037201 L149.404552,16.2037201 C151.002821,16.2037201 151.68304,15.1631324 151.68304,15.1631324 L151.68304,16.2037201 L156.16129,16.2037201 L156.16129,5.92631027 C156.16129,0.648596794 152.363589,0.638385265 152.363589,0.638385265 L152.363589,0.638385265 Z" id="Fill-14"></path>
                <path d="M128.802298,12.5638041 L118.801917,12.5638041 L118.801917,10.2843273 L128.802298,10.2843273 C129.432448,10.2843273 129.942036,10.7955626 129.942036,11.4240657 C129.942036,12.0542159 129.432448,12.5638041 128.802298,12.5638041 Z M132.031776,8.22456311 C132.031776,8.22456311 133.585905,7.46100426 133.585905,6.20696262 L133.585905,3.06839977 C133.585905,3.06839977 133.641574,0.638385265 130.257935,0.638385265 L114.628037,0.638385265 L114.628037,4.31058286 L128.802298,4.31058286 C129.432448,4.31058286 129.942036,4.82115931 129.942036,5.44966245 C129.942036,6.07981261 129.432448,6.59104787 128.802298,6.59104787 L114.628037,6.59104787 L114.628037,16.0535118 L132.303535,16.0535118 C132.303535,16.0535118 134.460802,16.0801936 134.460802,13.8445275 L134.460802,10.7342934 C134.460802,10.7342934 134.432474,8.22456311 132.031776,8.22456311 L132.031776,8.22456311 Z" id="Fill-15"></path>
                <path d="M89.2006706,0.2770289 C86.8905592,0.2770289 85.7007513,2.6592798 85.7007513,2.6592798 L80.0336822,11.7188825 L74.3672718,2.6592798 C74.3672718,2.6592798 73.1768051,0.2770289 70.8660349,0.2770289 C67.2574123,0.2770289 66.7514475,3.70579682 66.7514475,3.70579682 L66.7514475,16.1348746 L70.9740795,16.1348746 L70.9740795,6.34168892 C70.9740795,6.34168892 71.0109728,5.67233966 71.6421111,5.67233966 C71.6421111,5.67233966 72.1655343,5.65488124 72.3819529,6.23364436 L78.013117,15.9421732 L82.0552355,15.9421732 L87.6854114,6.23364436 C87.90183,5.65488124 88.4262414,5.67233966 88.4262414,5.67233966 C89.0570504,5.67233966 89.0932848,6.34168892 89.0932848,6.34168892 L89.0932848,16.1348746 L93.3159168,16.1348746 L93.3159168,3.70579682 C93.3159168,3.70579682 92.8109402,0.2770289 89.2006706,0.2770289" id="Fill-16"></path>
                <path d="M2.44780233,22.241369 C2.29429999,22.3181202 1.98795412,22.3948713 1.59497495,22.3948713 C0.685160656,22.3948713 0,21.8200611 0,20.7613561 C0,19.7504147 0.685160656,19.0655835 1.6862199,19.0655835 C2.08842239,19.0655835 2.34239299,19.1518874 2.45241398,19.2095331 L2.35194571,19.5494782 C2.19383172,19.4730564 1.96884867,19.4154107 1.70038428,19.4154107 C0.943742923,19.4154107 0.440742768,19.8993054 0.440742768,20.7471917 C0.440742768,21.5371029 0.895649916,22.0450441 1.68127884,22.0450441 C1.93524945,22.0450441 2.19383172,21.9923395 2.36149844,21.9109766 L2.44780233,22.241369" id="Fill-17"></path>
                <path d="M3.76410136,20.751474 C3.76410136,21.4415757 4.13797508,22.0595379 4.79414817,22.0595379 C5.45526232,22.0595379 5.82880664,21.450799 5.82880664,20.7182042 C5.82880664,20.0765248 5.4934732,19.405858 4.79875983,19.405858 C4.10898751,19.405858 3.76410136,20.0429256 3.76410136,20.751474 Z M6.26922001,20.6990987 C6.26922001,21.810179 5.59394147,22.399483 4.77010167,22.399483 C3.9176037,22.399483 3.31874693,21.7386982 3.31874693,20.7613561 C3.31874693,19.7362503 3.95581458,19.0655835 4.81786527,19.0655835 C5.69935081,19.0655835 6.26922001,19.740862 6.26922001,20.6990987 L6.26922001,20.6990987 Z" id="Fill-18"></path>
                <path d="M10.1720005,20.9290228 C10.1482834,20.4787273 10.1196253,19.9375163 10.1242369,19.5349844 L10.1097431,19.5349844 C9.99972214,19.9134698 9.86565464,20.3156723 9.70292899,20.7613561 L9.13273038,22.3276729 L8.81650239,22.3276729 L8.29439679,20.7903437 C8.14122386,20.3351071 8.01176802,19.9180814 7.92085247,19.5349844 L7.91129975,19.5349844 C7.90174703,19.9375163 7.87770053,20.4787273 7.84904237,20.962622 L7.76273847,22.3467783 L7.36514765,22.3467783 L7.5904601,19.1182881 L8.12211842,19.1182881 L8.67288217,20.6799933 C8.80694967,21.0775841 8.91697066,21.432023 8.99866289,21.767027 L9.01282727,21.767027 C9.0941901,21.4415757 9.20948155,21.0871368 9.35310177,20.6799933 L9.92791203,19.1182881 L10.4595703,19.1182881 L10.6608363,22.3467783 L10.2533633,22.3467783 L10.1720005,20.9290228" id="Fill-19"></path>
                <polyline id="Fill-20" points="13.6152622 20.8331662 12.3602324 20.8331662 12.3602324 21.9972805 13.7588824 21.9972805 13.7588824 22.3467783 11.9432067 22.3467783 11.9432067 19.1182881 13.6870723 19.1182881 13.6870723 19.4681154 12.3602324 19.4681154 12.3602324 20.4882801 13.6152622 20.4882801 13.6152622 20.8331662"></polyline>
                <path d="M15.3578102,20.6319003 L15.7843886,20.6319003 C16.229743,20.6319003 16.5123718,20.3878118 16.5123718,20.0188791 C16.5123718,19.6021829 16.2103082,19.4200224 15.7698948,19.4154107 C15.5686289,19.4154107 15.4250087,19.4345161 15.3578102,19.4536216 L15.3578102,20.6319003 Z M14.941114,19.1614401 C15.1519326,19.1182881 15.4536668,19.0942416 15.7412367,19.0942416 C16.1865911,19.0942416 16.4738315,19.1756045 16.6750975,19.357765 C16.8381525,19.5017146 16.9290681,19.7217566 16.9290681,19.9707861 C16.9290681,20.3973645 16.6609331,20.6799933 16.3206586,20.7946259 L16.3206586,20.8091197 C16.5696881,20.8954236 16.7182494,21.1253477 16.7950006,21.4606811 C16.9004099,21.9109766 16.9768317,22.2222636 17.0440301,22.3467783 L16.6128401,22.3467783 C16.5601354,22.2558628 16.4883253,21.9778457 16.3974098,21.5756432 C16.3015532,21.1302888 16.1289454,20.962622 15.75046,20.9481283 L15.3578102,20.9481283 L15.3578102,22.3467783 L14.941114,22.3467783 L14.941114,19.1614401 L14.941114,19.1614401 Z" id="Fill-21"></path>
                <path d="M20.4296461,22.241369 C20.2761438,22.3181202 19.9697979,22.3948713 19.5768187,22.3948713 C18.6670044,22.3948713 17.9818438,21.8200611 17.9818438,20.7613561 C17.9818438,19.7504147 18.6670044,19.0655835 19.6680637,19.0655835 C20.0702662,19.0655835 20.3242368,19.1518874 20.4342578,19.2095331 L20.3337895,19.5494782 C20.1756755,19.4730564 19.9503631,19.4154107 19.6822281,19.4154107 C18.9255867,19.4154107 18.4225866,19.8993054 18.4225866,20.7471917 C18.4225866,21.5371029 18.8774937,22.0450441 19.6631226,22.0450441 C19.9170932,22.0450441 20.1756755,21.9923395 20.3433422,21.9109766 L20.4296461,22.241369" id="Fill-22"></path>
                <polygon id="Fill-23" points="21.5924428 22.3467783 22.0091391 22.3467783 22.0091391 19.1182881 21.5924428 19.1182881"></polygon>
                <path d="M24.9596121,21.005774 L24.6437136,20.0765248 C24.571574,19.8657062 24.5238104,19.673993 24.4757174,19.4872208 L24.4661647,19.4872208 C24.4184011,19.678934 24.3656964,19.8749295 24.3034391,20.0715838 L23.9872111,21.005774 L24.9596121,21.005774 Z M23.9012366,21.3312253 L23.5655737,22.3467783 L23.1347131,22.3467783 L24.2312995,19.1182881 L24.7342997,19.1182881 L25.8361566,22.3467783 L25.3908022,22.3467783 L25.045916,21.3312253 L23.9012366,21.3312253 L23.9012366,21.3312253 Z" id="Fill-24"></path>
                <polyline id="Fill-25" points="26.9511897 19.1182881 27.3682154 19.1182881 27.3682154 21.9972805 28.7474306 21.9972805 28.7474306 22.3467783 26.9511897 22.3467783 26.9511897 19.1182881"></polyline>
                <polygon id="Fill-26" points="29.8532404 22.3467783 30.2699366 22.3467783 30.2699366 19.1182881 29.8532404 19.1182881"></polygon>
                <polyline id="Fill-27" points="31.4192278 22.1026898 33.210857 19.4822797 33.210857 19.4681154 31.5724007 19.4681154 31.5724007 19.1182881 33.752068 19.1182881 33.752068 19.3722588 31.9699915 21.9827867 31.9699915 21.9972805 33.7761145 21.9972805 33.7761145 22.3467783 31.4192278 22.3467783 31.4192278 22.1026898"></polyline>
                <path d="M36.5101691,21.005774 L36.1939411,20.0765248 C36.122131,19.8657062 36.0743674,19.673993 36.0262744,19.4872208 L36.0167216,19.4872208 C35.968958,19.678934 35.9162534,19.8749295 35.853996,20.0715838 L35.537768,21.005774 L36.5101691,21.005774 Z M35.4517935,21.3312253 L35.1161307,22.3467783 L34.68527,22.3467783 L35.7818565,19.1182881 L36.2848566,19.1182881 L37.3867135,22.3467783 L36.9413591,22.3467783 L36.596473,21.3312253 L35.4517935,21.3312253 L35.4517935,21.3312253 Z" id="Fill-28"></path>
                <path d="M38.9184429,22.016386 C39.0241816,22.0354914 39.1773546,22.0404325 39.3400802,22.0404325 C40.2311185,22.0404325 40.7150132,21.542044 40.7150132,20.6701111 C40.7196249,19.9088581 40.2887642,19.4249634 39.4072787,19.4249634 C39.1918484,19.4249634 39.0287933,19.4440689 38.9184429,19.4681154 L38.9184429,22.016386 Z M38.5017466,19.1614401 C38.7557172,19.1232292 39.0574515,19.0942416 39.3881732,19.0942416 C39.98703,19.0942416 40.413279,19.2332502 40.6955784,19.4967735 C40.9831482,19.7602969 41.1508149,20.1338412 41.1508149,20.6559468 C41.1508149,21.1829934 40.9880892,21.6141835 40.686355,21.9109766 C40.3842914,22.2127108 39.8862323,22.3754365 39.2587174,22.3754365 C38.9615948,22.3754365 38.7125653,22.3612721 38.5017466,22.3372256 L38.5017466,19.1614401 L38.5017466,19.1614401 Z" id="Fill-29"></path>
                <path d="M42.587017,20.751474 C42.587017,21.4415757 42.9605614,22.0595379 43.6167345,22.0595379 C44.2778486,22.0595379 44.6513929,21.450799 44.6513929,20.7182042 C44.6513929,20.0765248 44.3160595,19.405858 43.6216755,19.405858 C42.9319032,19.405858 42.587017,20.0429256 42.587017,20.751474 Z M45.0921357,20.6990987 C45.0921357,21.810179 44.4165278,22.399483 43.592688,22.399483 C42.74019,22.399483 42.1413332,21.7386982 42.1413332,20.7613561 C42.1413332,19.7362503 42.7784009,19.0655835 43.640781,19.0655835 C44.5219371,19.0655835 45.0921357,19.740862 45.0921357,20.6990987 L45.0921357,20.6990987 Z" id="Fill-30"></path>
                <path d="M46.6907341,20.6319003 L47.1173125,20.6319003 C47.5626669,20.6319003 47.8452957,20.3878118 47.8452957,20.0188791 C47.8452957,19.6021829 47.5435615,19.4200224 47.1028187,19.4154107 C46.9015528,19.4154107 46.7579325,19.4345161 46.6907341,19.4536216 L46.6907341,20.6319003 Z M46.2740378,19.1614401 C46.4848565,19.1182881 46.7865907,19.0942416 47.0741605,19.0942416 C47.519515,19.0942416 47.8067554,19.1756045 48.0080213,19.357765 C48.1710764,19.5017146 48.2619919,19.7217566 48.2619919,19.9707861 C48.2619919,20.3973645 47.993857,20.6799933 47.6535825,20.7946259 L47.6535825,20.8091197 C47.902612,20.8954236 48.0511733,21.1253477 48.1279245,21.4606811 C48.2333338,21.9109766 48.3097555,22.2222636 48.376954,22.3467783 L47.9457639,22.3467783 C47.8930593,22.2558628 47.8212492,21.9778457 47.7303336,21.5756432 C47.634477,21.1302888 47.4618692,20.962622 47.0837133,20.9481283 L46.6907341,20.9481283 L46.6907341,22.3467783 L46.2740378,22.3467783 L46.2740378,19.1614401 L46.2740378,19.1614401 Z" id="Fill-31"></path>
                <path d="M51.0968442,21.005774 L50.7806162,20.0765248 C50.7088061,19.8657062 50.6607131,19.673993 50.6129494,19.4872208 L50.6033967,19.4872208 C50.5556331,19.678934 50.5025991,19.8749295 50.4403417,20.0715838 L50.1244431,21.005774 L51.0968442,21.005774 Z M50.0381392,21.3312253 L49.7028057,22.3467783 L49.2719451,22.3467783 L50.3685316,19.1182881 L50.8715317,19.1182881 L51.9733886,22.3467783 L51.5277048,22.3467783 L51.1828186,21.3312253 L50.0381392,21.3312253 L50.0381392,21.3312253 Z" id="Fill-32"></path>
                <path d="M55.2437132,22.3467783 L55.2437132,20.9767864 L54.2232191,19.1182881 L54.6975611,19.1182881 L55.1527976,20.0093264 C55.2773124,20.2537443 55.373169,20.4497398 55.4736373,20.6750522 L55.48319,20.6750522 C55.5741055,20.4642335 55.6841265,20.2537443 55.8089707,20.0093264 L56.2734306,19.1182881 L56.7477726,19.1182881 L55.6650211,20.9718454 L55.6650211,22.3467783 L55.2437132,22.3467783" id="Fill-33"></path>
                <path d="M59.8313249,22.016386 C59.9367342,22.0354914 60.0899072,22.0404325 60.2529622,22.0404325 C61.1436711,22.0404325 61.6275658,21.542044 61.6275658,20.6701111 C61.6325069,19.9088581 61.2013168,19.4249634 60.3198313,19.4249634 C60.104401,19.4249634 59.9413459,19.4440689 59.8313249,19.4681154 L59.8313249,22.016386 Z M59.4146286,19.1614401 C59.6685993,19.1232292 59.9703335,19.0942416 60.3007258,19.0942416 C60.8995826,19.0942416 61.3258316,19.2332502 61.6084604,19.4967735 C61.8957008,19.7602969 62.0633675,20.1338412 62.0633675,20.6559468 C62.0633675,21.1829934 61.9006419,21.6141835 61.5989076,21.9109766 C61.296844,22.2127108 60.7987849,22.3754365 60.17127,22.3754365 C59.8744769,22.3754365 59.6254473,22.3612721 59.4146286,22.3372256 L59.4146286,19.1614401 L59.4146286,19.1614401 Z" id="Fill-34"></path>
                <polygon id="Fill-35" points="63.245599 22.3467783 63.6622953 22.3467783 63.6622953 19.1182881 63.245599 19.1182881"></polygon>
                <path d="M64.9743121,21.8391665 C65.1610842,21.9541286 65.4341603,22.0499852 65.7217301,22.0499852 C66.1479791,22.0499852 66.3970087,21.8246727 66.3970087,21.498892 C66.3970087,21.1971578 66.2244009,21.0248794 65.7885992,20.8572127 C65.2618819,20.6701111 64.9361012,20.3973645 64.9361012,19.9421279 C64.9361012,19.4391278 65.3527975,19.0655835 65.9803124,19.0655835 C66.3107048,19.0655835 66.5501816,19.1423346 66.6938018,19.2236975 L66.5791692,19.563972 C66.4737598,19.5063262 66.2580001,19.4104696 65.9658186,19.4104696 C65.5250758,19.4104696 65.3577385,19.673993 65.3577385,19.8943643 C65.3577385,20.1960986 65.5540634,20.3446598 65.9994178,20.5172676 C66.5455699,20.7277569 66.8232576,20.9912802 66.8232576,21.4652928 C66.8232576,21.9636813 66.454325,22.3948713 65.6927426,22.3948713 C65.3814556,22.3948713 65.0415105,22.3036264 64.8689028,22.1889937 L64.9743121,21.8391665" id="Fill-36"></path>
                <polyline id="Fill-37" points="68.6471685 19.4730564 67.6652147 19.4730564 67.6652147 19.1182881 70.0557007 19.1182881 70.0557007 19.4730564 69.0688058 19.4730564 69.0688058 22.3467783 68.6471685 22.3467783 68.6471685 19.4730564"></polyline>
                <path d="M71.4727974,20.6319003 L71.8990464,20.6319003 C72.3447302,20.6319003 72.6270296,20.3878118 72.6270296,20.0188791 C72.6270296,19.6021829 72.3252954,19.4200224 71.884882,19.4154107 C71.6836161,19.4154107 71.5396664,19.4345161 71.4727974,19.4536216 L71.4727974,20.6319003 Z M71.0557717,19.1614401 C71.2669198,19.1182881 71.568654,19.0942416 71.8558944,19.0942416 C72.3015783,19.0942416 72.5888187,19.1756045 72.7900846,19.357765 C72.9528103,19.5017146 73.0440552,19.7217566 73.0440552,19.9707861 C73.0440552,20.3973645 72.7755909,20.6799933 72.4353164,20.7946259 L72.4353164,20.8091197 C72.6846753,20.8954236 72.8329072,21.1253477 72.9096583,21.4606811 C73.0150677,21.9109766 73.0918188,22.2222636 73.1586879,22.3467783 L72.7278272,22.3467783 C72.6747932,22.2558628 72.6033125,21.9778457 72.5120675,21.5756432 C72.4162109,21.1302888 72.2439325,20.962622 71.8654472,20.9481283 L71.4727974,20.9481283 L71.4727974,22.3467783 L71.0557717,22.3467783 L71.0557717,19.1614401 L71.0557717,19.1614401 Z" id="Fill-38"></path>
                <polygon id="Fill-39" points="74.2740504 22.3467783 74.6907466 22.3467783 74.6907466 19.1182881 74.2740504 19.1182881"></polygon>
                <path d="M76.4771054,22.0305503 C76.5587976,22.0450441 76.6783714,22.0499852 76.8266032,22.0499852 C77.2581227,22.0499852 77.6557135,21.8915418 77.6557135,21.4224703 C77.6557135,20.9817275 77.2772281,20.799567 76.8219916,20.799567 L76.4771054,20.799567 L76.4771054,22.0305503 Z M76.4771054,20.4836684 L76.8555908,20.4836684 C77.2963336,20.4836684 77.5549158,20.2537443 77.5549158,19.9421279 C77.5549158,19.563972 77.267346,19.4154107 76.8460381,19.4154107 C76.6543249,19.4154107 76.5443039,19.4299045 76.4771054,19.4440689 L76.4771054,20.4836684 Z M76.0604092,19.1614401 C76.2425697,19.1232292 76.5298101,19.0942416 76.8219916,19.0942416 C77.2386878,19.0942416 77.5068228,19.1663811 77.7080888,19.3291068 C77.8757555,19.4536216 77.9765532,19.6453348 77.9765532,19.8993054 C77.9765532,20.2105923 77.7703462,20.4836684 77.4304011,20.6081832 L77.4304011,20.6174065 C77.7370763,20.6944871 78.0961269,20.9481283 78.0961269,21.4270819 C78.0961269,21.705099 77.9861059,21.9159177 77.8230508,22.0737023 C77.5980678,22.2799093 77.2340762,22.3754365 76.7070295,22.3754365 C76.4197891,22.3754365 76.1994177,22.3566605 76.0604092,22.3372256 L76.0604092,19.1614401 L76.0604092,19.1614401 Z" id="Fill-40"></path>
                <path d="M79.7144895,19.1182881 L79.7144895,21.0294911 C79.7144895,21.7528626 80.0353292,22.0595379 80.4665192,22.0595379 C80.9454729,22.0595379 81.2521481,21.7433099 81.2521481,21.0294911 L81.2521481,19.1182881 L81.6734561,19.1182881 L81.6734561,21.0008329 C81.6734561,21.9923395 81.1513505,22.399483 80.4520254,22.399483 C79.7909113,22.399483 79.2928522,22.0209976 79.2928522,21.0199384 L79.2928522,19.1182881 L79.7144895,19.1182881" id="Fill-41"></path>
                <polygon id="Fill-42" points="83.0375187 22.3467783 83.454215 22.3467783 83.454215 19.1182881 83.0375187 19.1182881"></polygon>
                <path d="M85.2405737,22.016386 C85.3459831,22.0354914 85.499156,22.0404325 85.6622111,22.0404325 C86.5529199,22.0404325 87.0368146,21.542044 87.0368146,20.6701111 C87.0417557,19.9088581 86.6105656,19.4249634 85.7290801,19.4249634 C85.5136498,19.4249634 85.3509241,19.4440689 85.2405737,19.4681154 L85.2405737,22.016386 Z M84.8238775,19.1614401 C85.0778481,19.1232292 85.3795823,19.0942416 85.7099747,19.0942416 C86.3088314,19.0942416 86.7350804,19.2332502 87.0177092,19.4967735 C87.305279,19.7602969 87.4726163,20.1338412 87.4726163,20.6559468 C87.4726163,21.1829934 87.3098907,21.6141835 87.0081565,21.9109766 C86.7064223,22.2127108 86.2080338,22.3754365 85.5805188,22.3754365 C85.2837257,22.3754365 85.0346961,22.3612721 84.8238775,22.3372256 L84.8238775,19.1614401 L84.8238775,19.1614401 Z" id="Fill-43"></path>
                <path d="M88.9088185,20.751474 C88.9088185,21.4415757 89.2823628,22.0595379 89.9385359,22.0595379 C90.59965,22.0595379 90.9731944,21.450799 90.9731944,20.7182042 C90.9731944,20.0765248 90.6378609,19.405858 89.9431475,19.405858 C89.2537046,19.405858 88.9088185,20.0429256 88.9088185,20.751474 Z M91.4139371,20.6990987 C91.4139371,21.810179 90.7383292,22.399483 89.9144894,22.399483 C89.0619914,22.399483 88.4631346,21.7386982 88.4631346,20.7613561 C88.4631346,19.7362503 89.1005317,19.0655835 89.9625824,19.0655835 C90.8440679,19.0655835 91.4139371,19.740862 91.4139371,20.6990987 L91.4139371,20.6990987 Z" id="Fill-44"></path>
                <path d="M93.0128649,20.6319003 L93.4391139,20.6319003 C93.8844683,20.6319003 94.1674265,20.3878118 94.1674265,20.0188791 C94.1674265,19.6021829 93.8656923,19.4200224 93.4249495,19.4154107 C93.2233542,19.4154107 93.0800634,19.4345161 93.0128649,19.4536216 L93.0128649,20.6319003 Z M92.5961687,19.1614401 C92.8069873,19.1182881 93.1087215,19.0942416 93.395962,19.0942416 C93.8413164,19.0942416 94.1288862,19.1756045 94.3301522,19.357765 C94.4928778,19.5017146 94.5837934,19.7217566 94.5837934,19.9707861 C94.5837934,20.3973645 94.3156584,20.6799933 93.9757133,20.7946259 L93.9757133,20.8091197 C94.2247428,20.8954236 94.3733041,21.1253477 94.4497259,21.4606811 C94.5551352,21.9109766 94.6318864,22.2222636 94.6990848,22.3467783 L94.2678948,22.3467783 C94.2151901,22.2558628 94.1430506,21.9778457 94.0521351,21.5756432 C93.9566079,21.1302888 93.7840001,20.962622 93.4055147,20.9481283 L93.0128649,20.9481283 L93.0128649,22.3467783 L92.5961687,22.3467783 L92.5961687,19.1614401 L92.5961687,19.1614401 Z" id="Fill-45"></path>
                <path d="M97.418975,21.005774 L97.102747,20.0765248 C97.0306075,19.8657062 96.9828439,19.673993 96.9350803,19.4872208 L96.9255276,19.4872208 C96.8774346,19.678934 96.8247299,19.8749295 96.7624725,20.0715838 L96.4465739,21.005774 L97.418975,21.005774 Z M96.36027,21.3312253 L96.0246072,22.3467783 L95.5937465,22.3467783 L96.6906624,19.1182881 L97.1936626,19.1182881 L98.2955195,22.3467783 L97.8498356,22.3467783 L97.5049495,21.3312253 L96.36027,21.3312253 L96.36027,21.3312253 Z" id="Fill-46"></path>
                <path d="M103.788334,20.9290228 C103.763958,20.4787273 103.7353,19.9375163 103.740241,19.5349844 L103.725747,19.5349844 C103.615397,19.9134698 103.481659,20.3156723 103.318604,20.7613561 L102.748405,22.3276729 L102.432506,22.3276729 L101.910071,20.7903437 C101.757228,20.3351071 101.627772,19.9180814 101.536856,19.5349844 L101.526974,19.5349844 C101.517422,19.9375163 101.493704,20.4787273 101.465046,20.962622 L101.378742,22.3467783 L100.981152,22.3467783 L101.206464,19.1182881 L101.737793,19.1182881 L102.288886,20.6799933 C102.422954,21.0775841 102.532975,21.432023 102.614337,21.767027 L102.628831,21.767027 C102.710194,21.4415757 102.825486,21.0871368 102.968776,20.6799933 L103.543587,19.1182881 L104.075574,19.1182881 L104.276511,22.3467783 L103.869697,22.3467783 L103.788334,20.9290228" id="Fill-47"></path>
                <path d="M105.975907,19.1182881 L105.975907,21.0294911 C105.975907,21.7528626 106.297076,22.0595379 106.727937,22.0595379 C107.20722,22.0595379 107.513566,21.7433099 107.513566,21.0294911 L107.513566,19.1182881 L107.934873,19.1182881 L107.934873,21.0008329 C107.934873,21.9923395 107.413097,22.399483 106.713443,22.399483 C106.052658,22.399483 105.554599,22.0209976 105.554599,21.0199384 L105.554599,19.1182881 L105.975907,19.1182881" id="Fill-48"></path>
                <polyline id="Fill-49" points="110.970992 20.8331662 109.715962 20.8331662 109.715962 21.9972805 111.114612 21.9972805 111.114612 22.3467783 109.299265 22.3467783 109.299265 19.1182881 111.042802 19.1182881 111.042802 19.4681154 109.715962 19.4681154 109.715962 20.4882801 110.970992 20.4882801 110.970992 20.8331662"></polyline>
                <path d="M112.71354,22.0305503 C112.794902,22.0450441 112.915135,22.0499852 113.063367,22.0499852 C113.494227,22.0499852 113.891818,21.8915418 113.891818,21.4224703 C113.891818,20.9817275 113.513662,20.799567 113.058426,20.799567 L112.71354,20.799567 L112.71354,22.0305503 Z M112.71354,20.4836684 L113.092354,20.4836684 C113.532768,20.4836684 113.791679,20.2537443 113.791679,19.9421279 C113.791679,19.563972 113.50411,19.4154107 113.082472,19.4154107 C112.890759,19.4154107 112.780738,19.4299045 112.71354,19.4440689 L112.71354,20.4836684 Z M112.297173,19.1614401 C112.479004,19.1232292 112.766244,19.0942416 113.058426,19.0942416 C113.475451,19.0942416 113.743586,19.1663811 113.944852,19.3291068 C114.11219,19.4536216 114.212987,19.6453348 114.212987,19.8993054 C114.212987,20.2105923 114.00711,20.4836684 113.666835,20.6081832 L113.666835,20.6174065 C113.973511,20.6944871 114.332561,20.9481283 114.332561,21.4270819 C114.332561,21.705099 114.22254,21.9159177 114.059485,22.0737023 C113.834831,22.2799093 113.47051,22.3754365 112.943793,22.3754365 C112.656223,22.3754365 112.436181,22.3566605 112.297173,22.3372256 L112.297173,19.1614401 L112.297173,19.1614401 Z" id="Fill-50"></path>
                <polyline id="Fill-51" points="115.534557 19.1182881 115.950924 19.1182881 115.950924 21.9972805 117.330798 21.9972805 117.330798 22.3467783 115.534557 22.3467783 115.534557 19.1182881"></polyline>
                <polyline id="Fill-52" points="120.108334 20.8331662 118.852974 20.8331662 118.852974 21.9972805 120.251624 21.9972805 120.251624 22.3467783 118.436278 22.3467783 118.436278 19.1182881 120.179814 19.1182881 120.179814 19.4681154 118.852974 19.4681154 118.852974 20.4882801 120.108334 20.4882801 120.108334 20.8331662"></polyline>
                <path d="M121.850882,20.6319003 L122.277131,20.6319003 C122.722485,20.6319003 123.005114,20.3878118 123.005114,20.0188791 C123.005114,19.6021829 122.70338,19.4200224 122.262966,19.4154107 C122.061371,19.4154107 121.91808,19.4345161 121.850882,19.4536216 L121.850882,20.6319003 Z M121.434185,19.1614401 C121.645004,19.1182881 121.946738,19.0942416 122.233979,19.0942416 C122.679333,19.0942416 122.966903,19.1756045 123.168169,19.357765 C123.330895,19.5017146 123.42181,19.7217566 123.42181,19.9707861 C123.42181,20.3973645 123.153675,20.6799933 122.813401,20.7946259 L122.813401,20.8091197 C123.06243,20.8954236 123.210991,21.1253477 123.287743,21.4606811 C123.393152,21.9109766 123.469903,22.2222636 123.537102,22.3467783 L123.105912,22.3467783 C123.053207,22.2558628 122.981067,21.9778457 122.890152,21.5756432 C122.794625,21.1302888 122.622017,20.962622 122.243531,20.9481283 L121.850882,20.9481283 L121.850882,22.3467783 L121.434185,22.3467783 L121.434185,19.1614401 L121.434185,19.1614401 Z" id="Fill-53"></path>
                <path d="M126.256992,21.005774 L125.940764,20.0765248 C125.868624,19.8657062 125.820861,19.673993 125.773097,19.4872208 L125.763544,19.4872208 C125.715451,19.678934 125.662747,19.8749295 125.600489,20.0715838 L125.284261,21.005774 L126.256992,21.005774 Z M125.198287,21.3312253 L124.862624,22.3467783 L124.431763,22.3467783 L125.528679,19.1182881 L126.031679,19.1182881 L127.133536,22.3467783 L126.687852,22.3467783 L126.342966,21.3312253 L125.198287,21.3312253 L125.198287,21.3312253 Z" id="Fill-54"></path>
                <path d="M130.321839,22.016386 C130.427578,22.0354914 130.580751,22.0404325 130.743806,22.0404325 C131.634515,22.0404325 132.118409,21.542044 132.118409,20.6701111 C132.123021,19.9088581 131.69216,19.4249634 130.810675,19.4249634 C130.594915,19.4249634 130.432189,19.4440689 130.321839,19.4681154 L130.321839,22.016386 Z M129.905472,19.1614401 C130.159113,19.1232292 130.460848,19.0942416 130.79124,19.0942416 C131.390426,19.0942416 131.816675,19.2332502 132.099304,19.4967735 C132.386544,19.7602969 132.554211,20.1338412 132.554211,20.6559468 C132.554211,21.1829934 132.391485,21.6141835 132.089751,21.9109766 C131.788017,22.2127108 131.289629,22.3754365 130.662114,22.3754365 C130.364991,22.3754365 130.115961,22.3612721 129.905472,22.3372256 L129.905472,19.1614401 L129.905472,19.1614401 Z" id="Fill-55"></path>
                <polyline id="Fill-56" points="135.408169 20.8331662 134.152809 20.8331662 134.152809 21.9972805 135.55146 21.9972805 135.55146 22.3467783 133.736443 22.3467783 133.736443 19.1182881 135.479979 19.1182881 135.479979 19.4681154 134.152809 19.4681154 134.152809 20.4882801 135.408169 20.4882801 135.408169 20.8331662"></polyline>
                <polyline id="Fill-57" points="136.734021 19.1182881 137.150717 19.1182881 137.150717 21.9972805 138.530261 21.9972805 138.530261 22.3467783 136.734021 22.3467783 136.734021 19.1182881"></polyline>
                <path d="M141.70967,22.0305503 C141.791033,22.0450441 141.910936,22.0499852 142.059168,22.0499852 C142.490358,22.0499852 142.887949,21.8915418 142.887949,21.4224703 C142.887949,20.9817275 142.509464,20.799567 142.054557,20.799567 L141.70967,20.799567 L141.70967,22.0305503 Z M141.70967,20.4836684 L142.088156,20.4836684 C142.528569,20.4836684 142.787481,20.2537443 142.787481,19.9421279 C142.787481,19.563972 142.499911,19.4154107 142.078603,19.4154107 C141.88689,19.4154107 141.776869,19.4299045 141.70967,19.4440689 L141.70967,20.4836684 Z M141.292974,19.1614401 C141.475135,19.1232292 141.762375,19.0942416 142.054557,19.0942416 C142.471253,19.0942416 142.739717,19.1663811 142.940654,19.3291068 C143.10832,19.4536216 143.208789,19.6453348 143.208789,19.8993054 C143.208789,20.2105923 143.002911,20.4836684 142.662637,20.6081832 L142.662637,20.6174065 C142.969312,20.6944871 143.328692,20.9481283 143.328692,21.4270819 C143.328692,21.705099 143.218671,21.9159177 143.055616,22.0737023 C142.830633,22.2799093 142.466641,22.3754365 141.939594,22.3754365 C141.652025,22.3754365 141.431983,22.3566605 141.292974,22.3372256 L141.292974,19.1614401 L141.292974,19.1614401 Z" id="Fill-58"></path>
                <path d="M146.110839,21.005774 L145.794611,20.0765248 C145.722472,19.8657062 145.675038,19.673993 145.626945,19.4872208 L145.617392,19.4872208 C145.569299,19.678934 145.516594,19.8749295 145.454666,20.0715838 L145.138438,21.005774 L146.110839,21.005774 Z M145.052134,21.3312253 L144.716801,22.3467783 L144.285611,22.3467783 L145.382527,19.1182881 L145.885527,19.1182881 L146.987384,22.3467783 L146.542029,22.3467783 L146.197143,21.3312253 L145.052134,21.3312253 L145.052134,21.3312253 Z" id="Fill-59"></path>
                <path d="M148.854776,19.1182881 L149.271472,19.1182881 L149.271472,21.2785206 C149.271472,22.1362891 148.849835,22.399483 148.29413,22.399483 C148.140957,22.399483 147.954185,22.3662132 147.848776,22.3230612 L147.911033,21.9827867 C147.997337,22.016386 148.121852,22.0450441 148.260531,22.0450441 C148.634405,22.0450441 148.854776,21.8773774 148.854776,21.2449214 L148.854776,19.1182881" id="Fill-60"></path>
                <path d="M150.607206,22.3467783 L151.023902,22.3467783 L151.023902,19.1182881 L150.607206,19.1182881 L150.607206,22.3467783 Z M151.51735,18.3853639 L150.904329,18.9460098 L150.564384,18.9460098 L151.004797,18.3853639 L151.51735,18.3853639 L151.51735,18.3853639 Z" id="Fill-61"></path>
                <path d="M152.647206,20.751474 C152.647206,21.4415757 153.02075,22.0595379 153.676924,22.0595379 C154.338038,22.0595379 154.711582,21.450799 154.711582,20.7182042 C154.711582,20.0765248 154.376249,19.405858 153.681535,19.405858 C152.992092,19.405858 152.647206,20.0429256 152.647206,20.751474 Z M155.152325,20.6990987 C155.152325,21.810179 154.476717,22.399483 153.653206,22.399483 C152.800379,22.399483 152.201522,21.7386982 152.201522,20.7613561 C152.201522,19.7362503 152.838919,19.0655835 153.70097,19.0655835 C154.582456,19.0655835 155.152325,19.740862 155.152325,20.6990987 L155.152325,20.6990987 Z" id="Fill-62"></path>
            </g>
        </g>
    </g>
</svg>