<?xml version="1.0" encoding="UTF-8" standalone="no"?>
<svg width="47px" height="53px" viewBox="0 0 47 53" version="1.1" xmlns="http://www.w3.org/2000/svg" xmlns:xlink="http://www.w3.org/1999/xlink">
    <!-- Generator: Sketch 45.1 (43504) - http://www.bohemiancoding.com/sketch -->
    <title>pdf-file-format-symbol</title>
    <desc>Created with Sketch.</desc>
    <defs></defs>
    <g id="07--avisos" stroke="none" stroke-width="1" fill="none" fill-rule="evenodd">
        <g id="06-avisos-320" transform="translate(-29.000000, -964.000000)" fill="#EAB23F">
            <g id="pdf-file-format-symbol" transform="translate(29.000000, 964.000000)">
                <path d="M12.2326046,27.0438325 C12.2326046,25.6343987 11.2536887,24.7938636 9.52969486,24.7938636 C8.82625923,24.7938636 8.34833302,24.861132 8.09847884,24.9316037 L8.09847884,29.4507612 C8.3938193,29.5186703 8.7589908,29.5410931 9.25677721,29.5410931 C11.0960884,29.5410931 12.2326046,28.6102261 12.2326046,27.0438325 Z" id="Fill-1"></path>
                <path d="M22.9084255,24.8387092 C22.1351588,24.8387092 21.6367317,24.9085402 21.3413913,24.9764493 L21.3413913,34.9917582 C21.6367317,35.0615893 22.1152986,35.0615893 22.5451759,35.0615893 C25.6786036,35.0814495 27.7229234,33.3574556 27.7229234,29.701256 C27.7459869,26.5204201 25.8836122,24.8387092 22.9084255,24.8387092 Z" id="Fill-2"></path>
                <path d="M43.366358,18.9556041 L42.1126025,18.9556041 L42.1126025,12.8988824 C42.1126025,12.8617246 42.1055553,12.8213636 42.1004301,12.7842058 C42.0978675,12.5439614 42.0229112,12.3088422 41.8576231,12.1211312 L31.7776084,0.606697212 C31.7750458,0.604134605 31.7724831,0.601571998 31.7699205,0.599009391 C31.7096993,0.531740957 31.6398682,0.476644906 31.5668339,0.429236676 C31.5444111,0.413861034 31.5219883,0.40168865 31.4995655,0.388875615 C31.434219,0.353639769 31.3669506,0.323529136 31.2971195,0.303668932 C31.2766187,0.298543718 31.2618837,0.291496549 31.2420235,0.286371335 C31.1664266,0.269073737 31.0863451,0.256260702 31.0062636,0.256260702 L6.23610418,0.256260702 C5.10535384,0.256260702 4.18409661,1.17751793 4.18409661,2.30570567 L4.18409661,18.9556041 L2.93034113,18.9556041 C1.31141414,18.9556041 0,20.2663776 0,21.8859453 L0,37.1212846 C0,38.7402116 1.31141414,40.0516258 2.93034113,40.0516258 L4.18409661,40.0516258 L4.18409661,50.482077 C4.18409661,51.613468 5.10535384,52.5347252 6.23610418,52.5347252 L40.0605949,52.5347252 C41.1919859,52.5347252 42.1126025,51.613468 42.1126025,50.482077 L42.1126025,40.0541884 L43.366358,40.0541884 C44.9859256,40.0541884 46.2973397,38.7402116 46.2973397,37.1238473 L46.2973397,21.8859453 C46.2973397,20.2663776 44.9859256,18.9556041 43.366358,18.9556041 Z M6.23610418,2.30570567 L29.9805802,2.30570567 L29.9805802,12.7963782 C29.9805802,13.3620737 30.4412088,13.8201397 31.0062636,13.8201397 L40.0605949,13.8201397 L40.0605949,18.9556041 L6.23610418,18.9556041 L6.23610418,2.30570567 Z M31.4021864,29.5859387 C31.4021864,32.5162798 30.3335793,34.5362548 28.856877,35.7874477 C27.2449972,37.1264099 24.7925823,37.7619364 21.7949727,37.7619364 C20.0030698,37.7619364 18.7288134,37.6491817 17.8658555,37.536427 L17.8658555,22.5016116 C19.1369086,22.2959624 20.7961966,22.1838483 22.5451759,22.1838483 C25.4511723,22.1838483 27.3353291,22.7040576 28.8120314,23.8175103 C30.4034103,24.9988721 31.4021864,26.8836696 31.4021864,29.5859387 Z M4.66971064,37.6043361 L4.66971064,22.5016116 C5.73575516,22.3190258 7.23488027,22.1838483 9.34710911,22.1838483 C11.4817608,22.1838483 13.0058713,22.5913028 14.0270702,23.4100558 C15.0027828,24.1807598 15.6607322,25.4543755 15.6607322,26.9535006 C15.6607322,28.4526257 15.1629457,29.7236788 14.2519389,30.5872774 C13.0705771,31.6981675 11.3241604,32.1985166 9.27920002,32.1985166 C8.82369662,32.1985166 8.41624211,32.1760938 8.09847884,32.1312481 L8.09847884,37.6043361 L4.66971064,37.6043361 Z M6.23610418,49.9291945 L40.0605949,49.9291945 L40.0605949,40.0541884 L6.23610418,40.0541884 L6.23610418,49.9291945 Z M43.0312971,25.1340497 L37.150114,25.1340497 L37.150114,28.6326489 L42.6456247,28.6326489 L42.6456247,31.4483134 L37.150114,31.4483134 L37.150114,37.6043361 L33.6765002,37.6043361 L33.6765002,22.2959624 L43.0312971,22.2959624 L43.0312971,25.1340497 Z" id="Fill-3"></path>
            </g>
        </g>
    </g>
</svg>